<?xml version="1.0" encoding="iso-8859-1"?>
<!-- Generator: Adobe Illustrator 19.0.0, SVG Export Plug-In . SVG Version: 6.00 Build 0)  -->
<svg version="1.1" id="Layer_1" xmlns="http://www.w3.org/2000/svg" xmlns:xlink="http://www.w3.org/1999/xlink" x="0px" y="0px"
	 viewBox="0 0 512 512" style="enable-background:new 0 0 512 512;" xml:space="preserve">
<rect x="50.221" y="369.835" style="fill:#E46A53;" width="139.919" height="46.358"/>
<rect x="50.221" y="277.119" style="fill:#F4A026;" width="198.825" height="46.358"/>
<rect x="50.221" y="184.403" style="fill:#61ACD2;" width="273.152" height="46.358"/>
<rect x="50.221" y="91.686" style="fill:#30A987;" width="383.042" height="46.358"/>
<path style="fill:#231F20;" d="M507.158,458.373l-38.632-33.481c-4.3-3.725-10.805-3.264-14.532,1.037
	c-3.726,4.3-3.262,10.806,1.037,14.532l17.762,15.394H60.523v-29.36h129.619c5.689,0,10.302-4.613,10.302-10.302v-46.358
	c0-5.689-4.613-10.302-10.302-10.302H60.523v-25.755h188.523c5.689,0,10.302-4.613,10.302-10.302v-46.358
	c0-5.689-4.613-10.302-10.302-10.302H60.523v-25.755h262.856c5.689,0,10.302-4.613,10.302-10.302v-46.358
	c0-5.689-4.613-10.302-10.302-10.302H60.523v-25.755h372.742c5.689,0,10.302-4.613,10.302-10.302V91.686
	c0-5.689-4.613-10.302-10.302-10.302H60.523V37.918L75.917,55.68c2.038,2.351,4.905,3.555,7.789,3.555
	c2.391,0,4.793-0.828,6.743-2.517c4.3-3.726,4.765-10.233,1.038-14.531L58.006,3.556c-0.061-0.07-0.118-0.129-0.177-0.193
	c-1.08-1.185-2.438-2.128-4.007-2.713c-4.029-1.503-8.568-0.345-11.386,2.904L8.955,42.186c-3.726,4.3-3.262,10.807,1.037,14.533
	c4.3,3.724,10.805,3.263,14.532-1.037L39.92,37.919v417.936H11.59c-5.689,0-10.302,4.613-10.302,10.302s4.613,10.302,10.302,10.302
	h28.33v25.239c0,5.689,4.613,10.302,10.302,10.302s10.302-4.613,10.302-10.302v-25.239h66.097v24.565
	c0,5.689,4.613,10.302,10.302,10.302c5.689,0,10.302-4.613,10.302-10.302v-24.565h72.113v24.565c0,5.689,4.613,10.302,10.302,10.302
	s10.302-4.613,10.302-10.302v-24.565h72.113v24.565c0,5.689,4.613,10.302,10.302,10.302s10.302-4.613,10.302-10.302v-24.565h72.113
	v24.565c0,5.689,4.613,10.302,10.302,10.302s10.302-4.613,10.302-10.302v-24.565h47.421l-17.762,15.394
	c-4.3,3.726-4.765,10.233-1.038,14.531c2.038,2.351,4.905,3.555,7.789,3.555c2.391,0,4.793-0.828,6.743-2.517l38.632-33.481
	c0.042-0.037,0.683-0.654,0.715-0.69c0.939-0.987,1.695-2.164,2.19-3.494C511.565,465.729,510.407,461.19,507.158,458.373z
	 M179.841,380.137v25.755H60.523v-25.755H179.841z M238.744,287.421v25.755H60.523v-25.755H238.744z M313.077,194.704v25.755H60.523
	v-25.755H313.077z M422.963,101.988v25.755H60.523v-25.755H422.963z"/>
<g>
</g>
<g>
</g>
<g>
</g>
<g>
</g>
<g>
</g>
<g>
</g>
<g>
</g>
<g>
</g>
<g>
</g>
<g>
</g>
<g>
</g>
<g>
</g>
<g>
</g>
<g>
</g>
<g>
</g>
</svg>
